<svg xmlns="http://www.w3.org/2000/svg" width="1400" height="920" viewBox="0 0 1400 920">
  <defs>
    <marker id="arrowGreen" markerWidth="10" markerHeight="10" refX="8" refY="5" orient="auto">
      <path d="M0,0 L10,5 L0,10 z" fill="#7c9a42"/>
    </marker>
    <marker id="arrowGold" markerWidth="10" markerHeight="10" refX="8" refY="5" orient="auto">
      <path d="M0,0 L10,5 L0,10 z" fill="#b08a57"/>
    </marker>
    <style>
      .title { font: 700 34px Georgia, serif; fill: #2b211c; }
      .label { font: 600 22px Arial, sans-serif; fill: #2b211c; }
      .small { font: 500 18px Arial, sans-serif; fill: #5a4032; }
      .tiny { font: 500 16px Arial, sans-serif; fill: #5a4032; }
    </style>
  </defs>

  <rect width="1400" height="920" fill="#efe8de"/>
  <rect x="90" y="110" width="1180" height="700" rx="18" fill="#e8e0d4" stroke="#5a4032" stroke-width="8"/>

  <text x="90" y="64" class="title">Plano referencial de flujo - showroom piloto A Coruna</text>
  <text x="90" y="92" class="small">Objetivo: calma, lectura premium, cola limpia y retail visible sin invadir la operacion.</text>

  <rect x="104" y="126" width="170" height="690" fill="#f3ece2" stroke="#d7ccb9" stroke-width="2"/>
  <text x="128" y="164" class="label">Umbral</text>
  <text x="128" y="192" class="tiny">Zona de descompresion</text>
  <text x="128" y="216" class="tiny">sin producto premium</text>

  <rect x="280" y="126" width="62" height="690" fill="#d9d0c3"/>
  <text x="292" y="160" class="tiny" transform="rotate(90 292,160)">ventanal + barra rapida</text>

  <rect x="360" y="146" width="680" height="170" rx="16" fill="#cfc6bb" stroke="#5a4032" stroke-width="3"/>
  <text x="392" y="182" class="label">Barra escenica</text>
  <rect x="388" y="206" width="170" height="82" rx="10" fill="#c2b39c"/>
  <text x="417" y="256" class="small">KB90</text>
  <rect x="575" y="206" width="82" height="82" rx="10" fill="#9e5a3c"/>
  <text x="588" y="256" class="small">GbW</text>
  <rect x="675" y="206" width="120" height="82" rx="10" fill="#76806b"/>
  <text x="699" y="256" class="small">Punto</text>
  <text x="690" y="278" class="tiny">pickup</text>
  <rect x="815" y="206" width="193" height="82" rx="10" fill="#b08a57"/>
  <text x="848" y="242" class="small">Retail premium</text>
  <text x="862" y="266" class="tiny">cafe + cacao + regalo</text>

  <rect x="1060" y="146" width="176" height="170" rx="16" fill="#ddd6cb" stroke="#5a4032" stroke-width="3"/>
  <text x="1088" y="186" class="label">Maridaje</text>
  <text x="1090" y="216" class="small">vitrina sobria</text>
  <text x="1090" y="242" class="small">sin bloquear cola</text>

  <rect x="360" y="338" width="310" height="196" rx="18" fill="#b6946d"/>
  <text x="442" y="378" class="label">Mesa comunal</text>
  <circle cx="396" cy="432" r="21" fill="#d5b089"/>
  <circle cx="634" cy="432" r="21" fill="#d5b089"/>
  <circle cx="396" cy="484" r="21" fill="#d5b089"/>
  <circle cx="634" cy="484" r="21" fill="#d5b089"/>

  <rect x="706" y="338" width="302" height="196" rx="18" fill="#8d6652"/>
  <text x="798" y="378" class="label" fill="#efe8de">Banquette</text>
  <text x="755" y="410" class="small" fill="#f6efe5">mesas 2p / 4p mas calmadas</text>
  <circle cx="744" cy="452" r="21" fill="#d5b089"/>
  <circle cx="972" cy="452" r="21" fill="#d5b089"/>
  <circle cx="744" cy="504" r="21" fill="#d5b089"/>
  <circle cx="972" cy="504" r="21" fill="#d5b089"/>

  <rect x="360" y="574" width="648" height="188" rx="18" fill="#f1e8db" stroke="#d8c8b2" stroke-width="2"/>
  <text x="392" y="612" class="label">Sala lenta</text>
  <text x="392" y="640" class="small">consumo reposado, cata, reunion breve y repeticion</text>

  <rect x="1060" y="356" width="176" height="406" rx="18" fill="#2b211c"/>
  <text x="1090" y="394" class="label" fill="#efe8de">Muro retail</text>
  <text x="1090" y="422" class="small" fill="#f6efe5">bolsas, regalos,</text>
  <text x="1090" y="446" class="small" fill="#f6efe5">suscripcion, cacao</text>
  <rect x="1090" y="480" width="116" height="220" fill="#5a4032"/>
  <rect x="1104" y="498" width="26" height="160" fill="#b08a57"/>
  <rect x="1141" y="498" width="26" height="160" fill="#b08a57"/>
  <rect x="1178" y="498" width="26" height="160" fill="#b08a57"/>

  <line x1="192" y1="712" x2="520" y2="712" stroke="#7c9a42" stroke-width="12" stroke-dasharray="22 18" marker-end="url(#arrowGreen)"/>
  <line x1="520" y1="712" x2="520" y2="546" stroke="#7c9a42" stroke-width="12" stroke-dasharray="22 18" marker-end="url(#arrowGreen)"/>
  <line x1="520" y1="546" x2="890" y2="546" stroke="#7c9a42" stroke-width="12" stroke-dasharray="22 18" marker-end="url(#arrowGreen)"/>
  <line x1="890" y1="546" x2="890" y2="286" stroke="#7c9a42" stroke-width="12" stroke-dasharray="22 18" marker-end="url(#arrowGreen)"/>
  <line x1="890" y1="286" x2="1048" y2="286" stroke="#7c9a42" stroke-width="12" stroke-dasharray="22 18" marker-end="url(#arrowGreen)"/>
  <line x1="1048" y1="286" x2="1048" y2="618" stroke="#7c9a42" stroke-width="12" stroke-dasharray="22 18" marker-end="url(#arrowGreen)"/>
  <line x1="1048" y1="618" x2="1184" y2="618" stroke="#7c9a42" stroke-width="12" stroke-dasharray="22 18" marker-end="url(#arrowGreen)"/>
  <text x="390" y="746" class="label" fill="#7c9a42">Flujo cliente</text>

  <line x1="648" y1="264" x2="566" y2="264" stroke="#b08a57" stroke-width="10" stroke-dasharray="18 14" marker-end="url(#arrowGold)"/>
  <line x1="740" y1="264" x2="658" y2="264" stroke="#b08a57" stroke-width="10" stroke-dasharray="18 14" marker-end="url(#arrowGold)"/>
  <line x1="904" y1="264" x2="820" y2="264" stroke="#b08a57" stroke-width="10" stroke-dasharray="18 14" marker-end="url(#arrowGold)"/>
  <text x="606" y="132" class="label" fill="#b08a57">Flujo operacion</text>

  <line x1="260" y1="700" x2="260" y2="430" stroke="#5a4032" stroke-width="3"/>
  <circle cx="260" cy="390" r="14" fill="#5a4032"/>
  <text x="120" y="392" class="small">Primer impacto:</text>
  <text x="120" y="418" class="small">vista directa a barra,</text>
  <text x="120" y="444" class="small">maquina y retail.</text>

  <rect x="1032" y="810" width="238" height="70" rx="12" fill="#f4ecdf" stroke="#cdbca5" stroke-width="2"/>
  <text x="1056" y="840" class="small">Trucos psicologicos aplicados:</text>
  <text x="1056" y="865" class="tiny">cola limpia, reveal controlado, retail en espera y salida.</text>
</svg>
